<?xml version="1.0" encoding="utf-8"?>
<!-- Generator: Adobe Illustrator 16.0.0, SVG Export Plug-In . SVG Version: 6.00 Build 0)  -->
<!DOCTYPE svg PUBLIC "-//W3C//DTD SVG 1.1//EN" "http://www.w3.org/Graphics/SVG/1.1/DTD/svg11.dtd">
<svg version="1.1" id="Layer_1" xmlns="http://www.w3.org/2000/svg" xmlns:xlink="http://www.w3.org/1999/xlink" x="0px" y="0px"
	 width="183.777px" height="240.16px" viewBox="0 0 183.777 240.16" enable-background="new 0 0 183.777 240.16"
	 xml:space="preserve">
<g>
	<g>
		<g>
			<path fill="#FFFFFF" d="M145.505,4.834c-1.556-1.556-4.628-2.823-6.828-2.823H6C3.8,2.011,2.373,3.8,2.373,6v228
				c0,2.2,1.427,4.011,3.627,4.011h172c2.2,0,4.373-1.811,4.373-4.011V45.323c0-2.2-1.459-5.271-3.015-6.826L145.505,4.834z"/>
			<path fill="none" stroke="#E5E5E5" stroke-miterlimit="10" d="M145.505,4.584c-1.556-1.556-4.628-3.073-6.828-3.073H6
				C3.8,1.511,1.873,3.8,1.873,6v228c0,2.2,1.927,3.511,4.127,3.511h172c2.2,0,3.873-1.311,3.873-3.511V45.323
				c0-2.2-1.209-5.396-2.765-6.951L145.505,4.584z"/>
		</g>
		<polygon fill="#E5E5E5" points="144.373,4.322 144.373,40.011 179.677,40.011 		"/>
	</g>
	<g>
		<rect x="13.373" y="33.011" fill="#9C9C9C" width="119" height="6"/>
		<rect x="31.373" y="106.011" fill="#E5E5E5" width="120" height="9"/>
		<rect x="31.373" y="166.011" fill="#E5E5E5" width="120" height="9"/>
		<g>
			<g>
				<path fill="#9C9C9C" d="M52.666,14.188c0-0.55,0.451-1,1-1h46.843c0.549,0,1,0.45,1,1l0,0c0,0.55-0.451,1-1,1H53.666
					C53.117,15.188,52.666,14.737,52.666,14.188L52.666,14.188z"/>
			</g>
			<g>
				<path fill="#9C9C9C" d="M52.666,18.688c0-0.55,0.451-1,1-1h63.759c0.551,0,1,0.45,1,1l0,0c0,0.55-0.449,1-1,1H53.666
					C53.117,19.688,52.666,19.237,52.666,18.688L52.666,18.688z"/>
			</g>
			<g>
				<path fill="#9C9C9C" d="M52.666,23.188c0-0.55,0.451-1,1-1h63.759c0.551,0,1,0.45,1,1l0,0c0,0.55-0.449,1-1,1H53.666
					C53.117,24.188,52.666,23.737,52.666,23.188L52.666,23.188z"/>
			</g>
		</g>
		<g>
			<path fill="#585858" d="M45.253,66.23c-0.243-1.179-0.833-1.941-1.771-2.275c-0.65-0.241-1.48-0.205-2.491,0.107
				c-1.013,0.314-1.754,0.471-2.221,0.471c-0.47,0-1.211-0.156-2.223-0.471c-1.012-0.313-1.839-0.349-2.492-0.107
				c-0.938,0.334-1.538,1.097-1.803,2.275c-0.145,0.723-0.121,1.445,0.069,2.166c0.196,0.723,0.46,1.457,0.795,2.205
				c0.339,0.745,0.542,1.346,0.615,1.806c0.049,0.264,0.06,0.853,0.036,1.769c-0.025,0.912,0.014,1.816,0.109,2.71
				c0.408,2.937,1.06,4.404,1.95,4.404c0.191,0,0.36-0.054,0.506-0.161c0.143-0.111,0.251-0.283,0.324-0.527
				c0.072-0.238,0.127-0.474,0.163-0.7c0.036-0.232,0.047-0.538,0.036-0.924c-0.015-0.383-0.025-0.697-0.036-0.936
				c-0.015-0.244-0.031-0.567-0.055-0.976c-0.049-0.699-0.062-1.168-0.036-1.411c0.146-1.612,0.825-2.418,2.041-2.418
				c1.216,0,1.895,0.806,2.038,2.418c0.026,0.267,0.015,0.734-0.036,1.411c-0.022,0.408-0.046,0.731-0.071,0.976
				c-0.023,0.238-0.036,0.553-0.036,0.936c0,0.386,0.019,0.691,0.055,0.924c0.037,0.227,0.088,0.462,0.163,0.7
				c0.072,0.244,0.18,0.416,0.325,0.527c0.144,0.107,0.313,0.161,0.505,0.161c0.89,0,1.542-1.468,1.949-4.404
				c0.099-0.868,0.134-1.777,0.109-2.728c-0.023-0.952-0.01-1.536,0.036-1.751c0.075-0.46,0.279-1.061,0.614-1.806
				c0.338-0.748,0.604-1.482,0.797-2.205C45.408,67.676,45.421,66.953,45.253,66.23L45.253,66.23z M45.253,66.23"/>
			<g>
				<path fill="#9C9C9C" d="M63,65.438c0-0.55,0.45-1,1-1h66.808c0.551,0,1,0.45,1,1l0,0c0,0.55-0.449,1-1,1H64
					C63.45,66.438,63,65.987,63,65.438L63,65.438z"/>
			</g>
			<g>
				<path fill="#9C9C9C" d="M63,69.938c0-0.55,0.45-1,1-1h66.927c0.549,0,1,0.45,1,1l0,0c0,0.55-0.451,1-1,1H64
					C63.45,70.938,63,70.487,63,69.938L63,69.938z"/>
			</g>
			<g>
				<path fill="#9C9C9C" d="M63,84.604c0-0.55,0.45-1,1-1h66.808c0.551,0,1,0.45,1,1l0,0c0,0.55-0.449,1-1,1H64
					C63.45,85.604,63,85.153,63,84.604L63,84.604z"/>
			</g>
			<g>
				<path fill="#9C9C9C" d="M63,89.104c0-0.55,0.45-1,1-1h66.927c0.549,0,1,0.45,1,1l0,0c0,0.55-0.451,1-1,1H64
					C63.45,90.104,63,89.653,63,89.104L63,89.104z"/>
			</g>
		</g>
		<g>
			<path fill="#585858" d="M45.253,128.98c-0.243-1.179-0.833-1.941-1.771-2.275c-0.65-0.241-1.48-0.205-2.491,0.107
				c-1.013,0.314-1.754,0.471-2.221,0.471c-0.47,0-1.211-0.156-2.223-0.471c-1.012-0.313-1.839-0.349-2.492-0.107
				c-0.938,0.334-1.538,1.097-1.803,2.275c-0.145,0.723-0.121,1.445,0.069,2.166c0.196,0.723,0.46,1.457,0.795,2.205
				c0.339,0.745,0.542,1.346,0.615,1.806c0.049,0.264,0.06,0.853,0.036,1.769c-0.025,0.912,0.014,1.816,0.109,2.71
				c0.408,2.937,1.06,4.404,1.95,4.404c0.191,0,0.36-0.054,0.506-0.161c0.143-0.111,0.251-0.283,0.324-0.527
				c0.072-0.238,0.127-0.474,0.163-0.7c0.036-0.232,0.047-0.538,0.036-0.924c-0.015-0.383-0.025-0.697-0.036-0.936
				c-0.015-0.244-0.031-0.567-0.055-0.976c-0.049-0.699-0.062-1.168-0.036-1.411c0.146-1.612,0.825-2.418,2.041-2.418
				c1.216,0,1.895,0.806,2.038,2.418c0.026,0.267,0.015,0.734-0.036,1.411c-0.022,0.408-0.046,0.731-0.071,0.976
				c-0.023,0.238-0.036,0.553-0.036,0.936c0,0.386,0.019,0.691,0.055,0.924c0.037,0.227,0.088,0.462,0.163,0.7
				c0.072,0.244,0.18,0.416,0.325,0.527c0.144,0.107,0.313,0.161,0.505,0.161c0.89,0,1.542-1.468,1.949-4.404
				c0.099-0.868,0.134-1.777,0.109-2.728c-0.023-0.952-0.01-1.536,0.036-1.751c0.075-0.46,0.279-1.061,0.614-1.806
				c0.338-0.748,0.604-1.482,0.797-2.205C45.408,130.426,45.421,129.703,45.253,128.98L45.253,128.98z M45.253,128.98"/>
			<g>
				<path fill="#9C9C9C" d="M63,128.188c0-0.55,0.45-1,1-1h66.808c0.551,0,1,0.45,1,1l0,0c0,0.55-0.449,1-1,1H64
					C63.45,129.188,63,128.737,63,128.188L63,128.188z"/>
			</g>
			<g>
				<path fill="#9C9C9C" d="M63,132.688c0-0.55,0.45-1,1-1h66.927c0.549,0,1,0.45,1,1l0,0c0,0.55-0.451,1-1,1H64
					C63.45,133.688,63,133.237,63,132.688L63,132.688z"/>
			</g>
			<g>
				<path fill="#9C9C9C" d="M63,147.354c0-0.55,0.45-1,1-1h66.808c0.551,0,1,0.45,1,1l0,0c0,0.55-0.449,1-1,1H64
					C63.45,148.354,63,147.903,63,147.354L63,147.354z"/>
			</g>
			<g>
				<path fill="#9C9C9C" d="M63,151.854c0-0.55,0.45-1,1-1h66.927c0.549,0,1,0.45,1,1l0,0c0,0.55-0.451,1-1,1H64
					C63.45,152.854,63,152.403,63,151.854L63,151.854z"/>
			</g>
		</g>
		<g>
			<path fill="#585858" d="M45.253,190.98c-0.243-1.179-0.833-1.941-1.771-2.275c-0.65-0.241-1.48-0.205-2.491,0.107
				c-1.013,0.314-1.754,0.471-2.221,0.471c-0.47,0-1.211-0.156-2.223-0.471c-1.012-0.313-1.839-0.349-2.492-0.107
				c-0.938,0.334-1.538,1.097-1.803,2.275c-0.145,0.723-0.121,1.445,0.069,2.166c0.196,0.723,0.46,1.457,0.795,2.205
				c0.339,0.745,0.542,1.346,0.615,1.806c0.049,0.264,0.06,0.853,0.036,1.769c-0.025,0.912,0.014,1.816,0.109,2.71
				c0.408,2.937,1.06,4.404,1.95,4.404c0.191,0,0.36-0.054,0.506-0.161c0.143-0.111,0.251-0.283,0.324-0.527
				c0.072-0.238,0.127-0.474,0.163-0.7c0.036-0.232,0.047-0.538,0.036-0.924c-0.015-0.383-0.025-0.697-0.036-0.936
				c-0.015-0.244-0.031-0.567-0.055-0.976c-0.049-0.699-0.062-1.168-0.036-1.411c0.146-1.612,0.825-2.418,2.041-2.418
				c1.216,0,1.895,0.806,2.038,2.418c0.026,0.267,0.015,0.734-0.036,1.411c-0.022,0.408-0.046,0.731-0.071,0.976
				c-0.023,0.238-0.036,0.553-0.036,0.936c0,0.386,0.019,0.691,0.055,0.924c0.037,0.227,0.088,0.462,0.163,0.7
				c0.072,0.244,0.18,0.416,0.325,0.527c0.144,0.107,0.313,0.161,0.505,0.161c0.89,0,1.542-1.468,1.949-4.404
				c0.099-0.868,0.134-1.777,0.109-2.728c-0.023-0.952-0.01-1.536,0.036-1.751c0.075-0.46,0.279-1.061,0.614-1.806
				c0.338-0.748,0.604-1.482,0.797-2.205C45.408,192.426,45.421,191.703,45.253,190.98L45.253,190.98z M45.253,190.98"/>
			<g>
				<path fill="#9C9C9C" d="M63,190.188c0-0.55,0.45-1,1-1h66.808c0.551,0,1,0.45,1,1l0,0c0,0.55-0.449,1-1,1H64
					C63.45,191.188,63,190.737,63,190.188L63,190.188z"/>
			</g>
			<g>
				<path fill="#9C9C9C" d="M63,194.688c0-0.55,0.45-1,1-1h66.927c0.549,0,1,0.45,1,1l0,0c0,0.55-0.451,1-1,1H64
					C63.45,195.688,63,195.237,63,194.688L63,194.688z"/>
			</g>
			<g>
				<path fill="#9C9C9C" d="M63,209.354c0-0.55,0.45-1,1-1h66.808c0.551,0,1,0.45,1,1l0,0c0,0.55-0.449,1-1,1H64
					C63.45,210.354,63,209.903,63,209.354L63,209.354z"/>
			</g>
			<g>
				<path fill="#9C9C9C" d="M63,213.854c0-0.55,0.45-1,1-1h66.927c0.549,0,1,0.45,1,1l0,0c0,0.55-0.451,1-1,1H64
					C63.45,214.854,63,214.403,63,213.854L63,213.854z"/>
			</g>
		</g>
		<g>
			<path fill="#585858" d="M30.708,19.679c1.782,0,3.223-1.685,3.223-3.77c0-2.886-1.441-3.77-3.223-3.77
				c-1.777,0-3.22,0.884-3.22,3.77C27.488,17.994,28.932,19.679,30.708,19.679z"/>
			<path fill="#585858" d="M36.198,21.57c-0.073-0.168-0.203-0.306-0.368-0.391l-2.522-1.313c-0.058-0.031-0.124-0.023-0.172,0.014
				c-0.714,0.539-1.552,0.827-2.428,0.827c-0.872,0-1.709-0.288-2.424-0.827c-0.05-0.038-0.119-0.045-0.174-0.014l-2.521,1.313
				c-0.164,0.085-0.292,0.223-0.369,0.391l-1.625,3.661v1.143h7.112h7.116v-1.143L36.198,21.57z"/>
		</g>
	</g>
</g>
</svg>
