<?xml version="1.0" encoding="utf-8"?>
<!-- Generator: Adobe Illustrator 16.0.0, SVG Export Plug-In . SVG Version: 6.00 Build 0)  -->
<!DOCTYPE svg PUBLIC "-//W3C//DTD SVG 1.1//EN" "http://www.w3.org/Graphics/SVG/1.1/DTD/svg11.dtd">
<svg version="1.1" id="Layer_1" xmlns="http://www.w3.org/2000/svg" xmlns:xlink="http://www.w3.org/1999/xlink" x="0px" y="0px"
	 width="192.706px" height="248.344px" viewBox="0 0 192.706 248.344" enable-background="new 0 0 192.706 248.344"
	 xml:space="preserve">
<g>
	<g>
		<g>
			<path fill="#FFFFFF" d="M153.505,21.834c-1.556-1.556-4.628-2.823-6.828-2.823H14c-2.2,0-3.627,1.789-3.627,3.989v219
				c0,2.2,1.427,4.011,3.627,4.011h172c2.2,0,4.373-1.811,4.373-4.011V62.323c0-2.2-1.459-5.271-3.015-6.826L153.505,21.834z"/>
			<path fill="none" stroke="#D6D6D6" stroke-miterlimit="10" d="M153.505,21.584c-1.556-1.556-4.628-3.073-6.828-3.073H14
				c-2.2,0-4.127,2.289-4.127,4.489v219c0,2.2,1.927,3.511,4.127,3.511h172c2.2,0,3.873-1.311,3.873-3.511V62.323
				c0-2.2-1.209-5.396-2.765-6.951L153.505,21.584z"/>
		</g>
	</g>
	<g>
		<g>
			<path fill="#FFFFFF" d="M149.505,12.834c-1.556-1.556-4.628-2.823-6.828-2.823H10c-2.2,0-3.627,1.789-3.627,3.989v224
				c0,2.2,1.427,4.011,3.627,4.011h172c2.2,0,4.373-1.811,4.373-4.011V53.323c0-2.2-1.459-5.271-3.015-6.826L149.505,12.834z"/>
			<path fill="none" stroke="#D6D6D6" stroke-miterlimit="10" d="M149.505,12.584c-1.556-1.556-4.628-3.073-6.828-3.073H10
				C7.8,9.511,5.873,11.8,5.873,14v224c0,2.2,1.927,3.511,4.127,3.511h172c2.2,0,3.873-1.311,3.873-3.511V53.323
				c0-2.2-1.209-5.396-2.765-6.951L149.505,12.584z"/>
		</g>
	</g>
	<g>
		<g>
			<path fill="#FFFFFF" d="M145.505,4.834c-1.556-1.556-4.628-2.823-6.828-2.823H6C3.8,2.011,2.373,3.8,2.373,6v228
				c0,2.2,1.427,4.011,3.627,4.011h172c2.2,0,4.373-1.811,4.373-4.011V45.323c0-2.2-1.459-5.271-3.015-6.826L145.505,4.834z"/>
			<path fill="none" stroke="#D6D6D6" stroke-miterlimit="10" d="M145.505,4.584c-1.556-1.556-4.628-3.073-6.828-3.073H6
				C3.8,1.511,1.873,3.8,1.873,6v228c0,2.2,1.927,3.511,4.127,3.511h172c2.2,0,3.873-1.311,3.873-3.511V45.323
				c0-2.2-1.209-5.396-2.765-6.951L145.505,4.584z"/>
		</g>
		<polygon fill="#E5E5E5" points="144.373,4.322 144.373,40.011 179.677,40.011 		"/>
	</g>
	<g>
		<rect x="13.373" y="33.011" fill="#9C9C9C" width="119" height="6"/>
		<rect x="31.373" y="125.011" fill="#E5E5E5" width="120" height="9"/>
		<rect x="31.373" y="207.011" fill="#E5E5E5" width="120" height="9"/>
		<g>
			<g>
				<path fill="#666666" d="M24.79,15.334c0.065-1.107,0.47-2.061,1.058-2.705c-0.337-0.83-1.016-1.129-1.809-1.129
					c-1.123,0-2.035,0.578-2.035,2.467c0,1.36,0.912,2.465,2.035,2.465c0.277,0,0.541-0.068,0.781-0.189
					C24.787,15.946,24.771,15.645,24.79,15.334z"/>
				<path fill="#666666" d="M33.119,11.5c-0.815,0-1.512,0.312-1.838,1.197c0.743,0.762,1.197,2.006,1.116,3.365
					c-0.004,0.067-0.02,0.127-0.026,0.191c0.232,0.111,0.482,0.178,0.748,0.178c1.124,0,2.035-1.104,2.035-2.465
					C35.154,12.078,34.243,11.5,33.119,11.5z"/>
				<path fill="#666666" d="M28.579,19.637c1.687,0,3.054-1.574,3.054-3.516c0-2.693-1.367-3.516-3.054-3.516
					s-3.054,0.822-3.054,3.516C25.525,18.063,26.893,19.637,28.579,19.637z"/>
				<path fill="#666666" d="M35.322,24.811l-1.541-3.414c-0.07-0.155-0.194-0.285-0.349-0.365l-1.071-1.054
					c-0.052-0.026-1.465-0.036-1.513,0c-0.343,0.256-0.854,1.474-1.513,1.474c-0.324,0-1.105,0-1.514,0
					c-0.828,0-0.837-0.971-1.513-1.474c-0.048-0.036-1.46-0.026-1.514,0l-1.071,1.054c-0.153,0.08-0.277,0.209-0.348,0.365
					l-1.54,3.414c-0.106,0.234-0.085,0.504,0.058,0.721c0.143,0.215,0.385,0.344,0.646,0.344h12.076
					c0.262,0,0.504-0.129,0.646-0.344C35.406,25.314,35.428,25.045,35.322,24.811z"/>
				<path fill="#666666" d="M37.613,20.061l-1.026-2.395c-0.048-0.109-0.13-0.199-0.232-0.256l-0.714-0.739
					c-0.035-0.019-0.977,0.129-1.009,0.153c-0.229,0.18-0.569,1.187-1.009,1.187c-0.217,0-0.737,0-1.01,0
					c-0.238,0-0.373-0.283-0.488-0.457c-0.114,0.324-0.262,0.595-0.434,0.855c1.32,0.249,2.721,1.103,3.822,2.435
					c0.04,0.049,0.076,0.167,0.115,0.167h1.516c0.174,0,0.336-0.192,0.43-0.343C37.67,20.516,37.685,20.226,37.613,20.061z"/>
				<path fill="#666666" d="M23.131,19.729c0.775-0.598,1.623-1.022,2.465-1.279c-0.211-0.286-0.392-0.583-0.525-0.962
					c-0.155,0.203-0.33,0.522-0.526,0.522c-0.216,0-0.737,0-1.009,0c-0.552,0-0.559-0.833-1.009-1.187
					c-0.032-0.023-0.974-0.094-1.009-0.075l-0.714,0.701c-0.103,0.055-0.185,0.127-0.232,0.236l-1.026,2.384
					c-0.071,0.166-0.057,0.451,0.039,0.603c0.095,0.15,0.256,0.338,0.43,0.338h1.835C22.205,21.011,22.631,20.114,23.131,19.729z"/>
			</g>
			<g>
				<path fill="#9C9C9C" d="M52.667,14.188c0-0.55,0.45-1,1-1h46.843c0.55,0,1,0.45,1,1l0,0c0,0.55-0.45,1-1,1H53.667
					C53.117,15.188,52.667,14.737,52.667,14.188L52.667,14.188z"/>
			</g>
			<g>
				<path fill="#9C9C9C" d="M52.667,18.688c0-0.55,0.45-1,1-1h63.759c0.551,0,1,0.45,1,1l0,0c0,0.55-0.449,1-1,1H53.667
					C53.117,19.688,52.667,19.237,52.667,18.688L52.667,18.688z"/>
			</g>
			<g>
				<path fill="#9C9C9C" d="M52.667,23.188c0-0.55,0.45-1,1-1h63.759c0.551,0,1,0.45,1,1l0,0c0,0.55-0.449,1-1,1H53.667
					C53.117,24.188,52.667,23.737,52.667,23.188L52.667,23.188z"/>
			</g>
		</g>
		<g>
			<g>
				<path fill="#585858" d="M69.292,88.895c1.636,0,2.959-1.547,2.959-3.461c0-2.649-1.323-3.461-2.959-3.461
					c-1.631,0-2.956,0.812-2.956,3.461C66.336,87.348,67.661,88.895,69.292,88.895z"/>
				<path fill="#585858" d="M74.332,90.631c-0.067-0.154-0.186-0.281-0.337-0.359l-2.315-1.205
					c-0.053-0.028-0.113-0.021-0.158,0.013c-0.655,0.495-1.425,0.759-2.229,0.759c-0.801,0-1.569-0.264-2.226-0.759
					c-0.046-0.034-0.109-0.041-0.16-0.013l-2.314,1.205c-0.15,0.078-0.269,0.205-0.339,0.359l-1.491,3.36v1.049h6.529h6.532v-1.049
					L74.332,90.631z"/>
			</g>
			<g>
				<path fill="#585858" d="M69.292,107.398c1.636,0,2.959-1.548,2.959-3.461c0-2.65-1.323-3.461-2.959-3.461
					c-1.631,0-2.956,0.811-2.956,3.461C66.336,105.851,67.661,107.398,69.292,107.398z"/>
				<path fill="#585858" d="M74.332,109.135c-0.067-0.155-0.186-0.282-0.337-0.36l-2.315-1.205
					c-0.053-0.028-0.113-0.021-0.158,0.013c-0.655,0.495-1.425,0.759-2.229,0.759c-0.801,0-1.569-0.264-2.226-0.759
					c-0.046-0.033-0.109-0.041-0.16-0.013l-2.314,1.205c-0.15,0.078-0.269,0.205-0.339,0.36l-1.491,3.359v1.049h6.529h6.532v-1.049
					L74.332,109.135z"/>
			</g>
			<path fill="#585858" d="M45.253,66.23c-0.243-1.179-0.833-1.941-1.771-2.275c-0.65-0.241-1.48-0.205-2.491,0.107
				c-1.013,0.314-1.754,0.471-2.221,0.471c-0.47,0-1.211-0.156-2.223-0.471c-1.012-0.313-1.839-0.349-2.492-0.107
				c-0.938,0.334-1.538,1.097-1.803,2.275c-0.145,0.723-0.121,1.445,0.069,2.166c0.196,0.723,0.46,1.457,0.795,2.205
				c0.339,0.745,0.542,1.346,0.615,1.806c0.049,0.264,0.06,0.853,0.036,1.769c-0.025,0.912,0.014,1.816,0.109,2.71
				c0.408,2.937,1.06,4.404,1.95,4.404c0.191,0,0.36-0.054,0.506-0.161c0.143-0.111,0.251-0.283,0.324-0.527
				c0.072-0.238,0.127-0.474,0.163-0.7c0.036-0.232,0.047-0.538,0.036-0.924c-0.015-0.383-0.025-0.697-0.036-0.936
				c-0.015-0.244-0.031-0.567-0.055-0.976c-0.049-0.699-0.062-1.168-0.036-1.411c0.146-1.612,0.825-2.418,2.041-2.418
				c1.216,0,1.895,0.806,2.038,2.418c0.026,0.267,0.015,0.734-0.036,1.411c-0.022,0.408-0.046,0.731-0.071,0.976
				c-0.023,0.238-0.036,0.553-0.036,0.936c0,0.386,0.019,0.691,0.055,0.924c0.037,0.227,0.088,0.462,0.163,0.7
				c0.072,0.244,0.18,0.416,0.325,0.527c0.144,0.107,0.313,0.161,0.505,0.161c0.89,0,1.542-1.468,1.949-4.404
				c0.099-0.868,0.134-1.777,0.109-2.728c-0.023-0.952-0.01-1.536,0.036-1.751c0.075-0.46,0.279-1.061,0.614-1.806
				c0.338-0.748,0.604-1.482,0.797-2.205C45.408,67.676,45.421,66.953,45.253,66.23L45.253,66.23z M45.253,66.23"/>
			<g>
				<path fill="#9C9C9C" d="M83,87.688c0-0.55,0.45-1,1-1h46.843c0.55,0,1,0.45,1,1l0,0c0,0.55-0.45,1-1,1H84
					C83.451,88.688,83,88.237,83,87.688L83,87.688z"/>
			</g>
			<g>
				<rect x="55.125" y="65.313" fill="#E5E5E5" width="76.624" height="5.854"/>
			</g>
			<g>
				<path fill="#9C9C9C" d="M83,92.188c0-0.55,0.45-1,1-1h46.927c0.549,0,1,0.45,1,1l0,0c0,0.55-0.451,1-1,1H84
					C83.451,93.188,83,92.737,83,92.188L83,92.188z"/>
			</g>
			<g>
				<path fill="#9C9C9C" d="M83,106.854c0-0.55,0.45-1,1-1h46.843c0.55,0,1,0.45,1,1l0,0c0,0.55-0.45,1-1,1H84
					C83.451,107.854,83,107.403,83,106.854L83,106.854z"/>
			</g>
			<g>
				<path fill="#9C9C9C" d="M83,111.354c0-0.55,0.45-1,1-1h46.927c0.549,0,1,0.45,1,1l0,0c0,0.55-0.451,1-1,1H84
					C83.451,112.354,83,111.903,83,111.354L83,111.354z"/>
			</g>
		</g>
		<g>
			<g>
				<path fill="#585858" d="M69.292,172.145c1.636,0,2.959-1.547,2.959-3.461c0-2.649-1.323-3.461-2.959-3.461
					c-1.631,0-2.956,0.812-2.956,3.461C66.336,170.598,67.661,172.145,69.292,172.145z"/>
				<path fill="#585858" d="M74.332,173.881c-0.067-0.154-0.186-0.281-0.337-0.359l-2.315-1.205
					c-0.053-0.028-0.113-0.021-0.158,0.013c-0.655,0.495-1.425,0.759-2.229,0.759c-0.801,0-1.569-0.264-2.226-0.759
					c-0.046-0.034-0.109-0.041-0.16-0.013l-2.314,1.205c-0.15,0.078-0.269,0.205-0.339,0.359l-1.491,3.36v1.049h6.529h6.532v-1.049
					L74.332,173.881z"/>
			</g>
			<g>
				<path fill="#585858" d="M69.292,190.648c1.636,0,2.959-1.548,2.959-3.461c0-2.65-1.323-3.461-2.959-3.461
					c-1.631,0-2.956,0.811-2.956,3.461C66.336,189.101,67.661,190.648,69.292,190.648z"/>
				<path fill="#585858" d="M74.332,192.385c-0.067-0.155-0.186-0.282-0.337-0.36l-2.315-1.205
					c-0.053-0.028-0.113-0.021-0.158,0.013c-0.655,0.495-1.425,0.759-2.229,0.759c-0.801,0-1.569-0.264-2.226-0.759
					c-0.046-0.033-0.109-0.041-0.16-0.013l-2.314,1.205c-0.15,0.078-0.269,0.205-0.339,0.36l-1.491,3.359v1.049h6.529h6.532v-1.049
					L74.332,192.385z"/>
			</g>
			<path fill="#585858" d="M45.253,149.48c-0.243-1.179-0.833-1.941-1.771-2.275c-0.65-0.241-1.48-0.205-2.491,0.107
				c-1.013,0.314-1.754,0.471-2.221,0.471c-0.47,0-1.211-0.156-2.223-0.471c-1.012-0.313-1.839-0.349-2.492-0.107
				c-0.938,0.334-1.538,1.097-1.803,2.275c-0.145,0.723-0.121,1.445,0.069,2.166c0.196,0.723,0.46,1.457,0.795,2.205
				c0.339,0.745,0.542,1.346,0.615,1.806c0.049,0.264,0.06,0.853,0.036,1.769c-0.025,0.912,0.014,1.816,0.109,2.71
				c0.408,2.937,1.06,4.404,1.95,4.404c0.191,0,0.36-0.054,0.506-0.161c0.143-0.111,0.251-0.283,0.324-0.527
				c0.072-0.238,0.127-0.474,0.163-0.7c0.036-0.232,0.047-0.538,0.036-0.924c-0.015-0.383-0.025-0.697-0.036-0.936
				c-0.015-0.244-0.031-0.567-0.055-0.976c-0.049-0.699-0.062-1.168-0.036-1.411c0.146-1.612,0.825-2.418,2.041-2.418
				c1.216,0,1.895,0.806,2.038,2.418c0.026,0.267,0.015,0.734-0.036,1.411c-0.022,0.408-0.046,0.731-0.071,0.976
				c-0.023,0.238-0.036,0.553-0.036,0.936c0,0.386,0.019,0.691,0.055,0.924c0.037,0.227,0.088,0.462,0.163,0.7
				c0.072,0.244,0.18,0.416,0.325,0.527c0.144,0.107,0.313,0.161,0.505,0.161c0.89,0,1.542-1.468,1.949-4.404
				c0.099-0.868,0.134-1.777,0.109-2.728c-0.023-0.952-0.01-1.536,0.036-1.751c0.075-0.46,0.279-1.061,0.614-1.806
				c0.338-0.748,0.604-1.482,0.797-2.205C45.408,150.926,45.421,150.203,45.253,149.48L45.253,149.48z M45.253,149.48"/>
			<g>
				<path fill="#9C9C9C" d="M83,170.938c0-0.55,0.45-1,1-1h46.843c0.55,0,1,0.45,1,1l0,0c0,0.55-0.45,1-1,1H84
					C83.451,171.938,83,171.487,83,170.938L83,170.938z"/>
			</g>
			<g>
				<rect x="55.125" y="148.563" fill="#E5E5E5" width="76.624" height="5.854"/>
			</g>
			<g>
				<path fill="#9C9C9C" d="M83,175.438c0-0.55,0.45-1,1-1h46.927c0.549,0,1,0.45,1,1l0,0c0,0.55-0.451,1-1,1H84
					C83.451,176.438,83,175.987,83,175.438L83,175.438z"/>
			</g>
			<g>
				<path fill="#9C9C9C" d="M83,190.104c0-0.55,0.45-1,1-1h46.843c0.55,0,1,0.45,1,1l0,0c0,0.55-0.45,1-1,1H84
					C83.451,191.104,83,190.653,83,190.104L83,190.104z"/>
			</g>
			<g>
				<path fill="#9C9C9C" d="M83,194.604c0-0.55,0.45-1,1-1h46.927c0.549,0,1,0.45,1,1l0,0c0,0.55-0.451,1-1,1H84
					C83.451,195.604,83,195.153,83,194.604L83,194.604z"/>
			</g>
		</g>
	</g>
</g>
</svg>
