<?xml version="1.0" encoding="UTF-8" standalone="no"?>
<!DOCTYPE svg PUBLIC "-//W3C//DTD SVG 20010904//EN"
              "http://www.w3.org/TR/2001/REC-SVG-20010904/DTD/svg10.dtd">
              
<?xml-stylesheet href="styles/svg.css" type="text/css"?>

<svg xmlns="http://www.w3.org/2000/svg"
     xmlns:xlink="http://www.w3.org/1999/xlink"
     width="6.94358in" height="11.1097in"
     viewBox="0 0 500 800">
  <use class="background" xlink:href="#background" />
  <use class="tooth"
    xlink:href="{{'#'+tooth.id}}"
    ng-click="selectTooth(tooth)"
    ng-class="{'drillable': tooth.drillable, 'main': tooth.main, 'selected': selectedTooth.id == tooth.id, 'additional': tooth.additional}"
    ng-repeat="tooth in teeth"/>


  <defs>
    <ref id="colorDrillable" param="color" default="#f4f4f4" />
    <ref id="colorNonDrillable" param="color" default="#6a6a6a" />
    <ref id="colorSelected" param="color" default="#88c4e6" />
  </defs>


  <symbol id="background">
    <path id="background"
        d="M 252.00,0.00
          C 252.00,0.00 252.00,400.00 252.00,400.00
            252.00,400.00 500.00,400.00 500.00,400.00
            500.00,400.00 500.00,403.00 500.00,403.00
            500.00,403.00 252.00,403.00 252.00,403.00
            252.00,403.00 252.00,800.00 252.00,800.00
            252.00,800.00 249.00,800.00 249.00,800.00
            249.00,800.00 249.00,403.00 249.00,403.00
            249.00,403.00 0.00,403.00 0.00,403.00
            0.00,403.00 0.00,400.00 0.00,400.00
            0.00,400.00 249.00,400.00 249.00,400.00
            249.00,400.00 249.00,0.00 249.00,0.00
            249.00,0.00 252.00,0.00 252.00,0.00 Z" />
  </symbol>
  <symbol id="11">
    <path id="11"
      d="M 247.49,38.23
         C 251.36,42.75 249.63,49.82 248.27,55.00
           245.23,66.52 239.90,88.13 226.00,89.81
           212.55,91.44 205.01,74.60 198.67,65.00
           195.53,60.25 191.42,53.99 193.74,48.02
           197.18,39.14 215.70,36.63 224.00,35.42
           229.84,34.71 243.45,33.51 247.49,38.23 Z" />
  </symbol>
  <symbol id="12">
    <path id="12"
        d="M 194.00,80.00
          C 193.98,83.94 194.22,87.18 192.89,91.00
            191.37,95.37 188.86,99.11 184.00,99.85
            173.83,101.42 167.02,93.31 160.00,87.27
            154.51,82.54 148.67,77.01 151.74,69.00
            155.29,59.72 173.80,52.93 183.00,51.43
            200.20,49.75 194.05,69.70 194.00,80.00 Z" />
  </symbol>

  <symbol id="13">
    <path id="13"
      d="M 164.14,101.00
         C 166.66,109.87 170.33,126.42 158.98,131.15
           156.54,132.17 152.67,132.05 150.00,131.99
           143.67,131.84 124.68,129.33 120.10,125.57
           115.59,121.87 114.49,116.49 114.00,111.00
           113.48,105.13 112.50,101.92 114.61,96.00
           118.15,86.07 131.53,80.31 141.00,77.53
           156.26,75.38 160.79,89.21 164.14,101.00 Z" />
  </symbol>

  <symbol id="14">
    <path id="14"
      d="M 136.00,132.96
         C 142.25,136.49 147.51,138.52 151.52,145.01
           158.77,156.74 153.73,169.80 140.00,172.88
           128.30,175.50 109.10,173.25 100.10,164.79
           92.86,157.98 89.90,143.13 96.53,135.09
           100.71,130.02 107.80,127.18 114.00,125.52
           122.80,124.32 128.75,128.87 136.00,132.96 Z" />
  </symbol>

  <symbol id="15">
    <path id="15"
      d="M 127.00,178.13
         C 129.99,180.40 133.19,182.85 135.30,186.00
           137.21,188.85 137.81,191.64 137.96,195.00
           138.64,210.61 125.94,214.14 113.00,214.00
           113.00,214.00 104.00,213.17 104.00,213.17
           94.81,212.28 92.05,212.47 85.10,204.98
           73.99,193.01 77.96,173.53 94.00,168.53
           106.43,166.48 117.19,170.70 127.00,178.13 Z" />
  </symbol>

  <symbol id="16">
    <path id="16"
      d="M 109.00,217.69
         C 115.56,220.71 116.96,220.92 123.00,225.67
           126.52,228.44 131.53,233.00 133.55,237.00
           140.57,250.92 127.51,280.04 113.00,284.56
           104.75,287.12 98.97,285.44 91.00,282.98
           76.64,278.53 60.21,271.43 60.00,254.00
           59.81,237.84 62.99,218.41 80.00,211.65
           92.09,209.16 98.45,212.84 109.00,217.69 Z" />
  </symbol>

  <symbol id="17">
    <path id="17"
      d="M 84.00,279.25
         C 95.38,282.98 111.40,284.46 117.03,297.00
           126.24,317.51 105.61,343.45 84.00,341.82
           72.34,340.93 56.25,331.56 52.65,320.00
           51.55,316.48 51.99,299.82 52.00,295.00
           52.02,284.87 54.15,278.15 65.00,275.47
           74.95,274.08 75.49,276.46 84.00,279.25 Z" />
  </symbol>

  <symbol id="18">
     <path id="18"
      d="M 91.00,342.96
         C 99.36,345.36 101.79,344.68 108.33,352.17
           110.25,354.36 112.29,357.29 113.39,360.00
           122.71,383.02 94.66,395.69 76.00,394.96
           73.09,394.85 68.76,394.11 66.00,393.22
           49.29,387.77 48.93,369.50 49.00,355.00
           49.04,346.71 50.53,342.26 59.00,339.53
           70.56,337.62 80.00,339.81 91.00,342.96 Z" />
  </symbol>

  <symbol id="21">
    <path id="21"
      d="M 293.00,39.00
         C 297.15,40.41 302.69,42.35 305.37,46.10
           307.68,49.63 307.07,54.27 305.37,58.00
           304.17,61.02 301.22,65.13 299.34,68.00
           295.05,74.56 288.55,86.59 281.00,89.15
           262.30,95.49 255.55,68.90 252.01,56.00
           249.89,48.29 247.71,40.38 256.02,35.74
           265.74,33.37 283.50,35.79 293.00,39.00 Z" />
  </symbol>

  <symbol id="22">
    <path id="22"
      d="M 340.00,60.59
         C 344.48,63.50 348.35,66.26 348.89,72.00
           349.77,81.41 339.49,87.85 333.00,93.25
           330.37,95.43 327.27,98.20 324.00,99.30
           309.40,104.24 306.06,91.16 306.00,80.00
           305.95,70.82 301.21,57.21 311.02,51.74
           320.49,49.64 332.25,55.56 340.00,60.59 Z" />
  </symbol>

  <symbol id="23">
    <path id="23"
      d="M 385.01,95.00
         C 387.26,100.24 386.73,103.67 386.16,109.00
           385.21,118.06 384.30,125.58 374.00,128.33
           369.18,129.62 354.91,131.87 350.00,131.99
           345.78,132.09 341.64,132.34 338.11,129.43
           328.81,121.47 334.75,103.60 338.11,94.00
           339.31,90.13 340.79,86.30 343.53,83.18
           346.32,80.01 349.07,78.75 353.00,77.53
           362.82,76.14 381.03,85.73 385.01,95.00 Z" />
  </symbol>

  <symbol id="24">
    <path id="24"
      d="M 393.00,127.87
         C 405.96,133.53 410.88,144.93 404.67,158.00
           400.81,166.14 392.55,170.62 384.00,172.48
           370.09,175.52 342.83,174.98 345.19,154.00
           345.46,151.54 346.27,149.20 347.38,147.00
           351.90,138.00 370.40,128.08 380.00,125.52
           385.21,124.81 388.22,125.79 393.00,127.87 Z" />
  </symbol>

  <symbol id="25">
    <path id="25"
      d="M 413.83,172.53
         C 427.54,184.25 420.42,208.81 403.00,212.61
           403.00,212.61 396.00,213.17 396.00,213.17
           385.75,214.16 372.98,215.78 365.40,206.90
           360.55,201.22 360.96,190.80 365.40,185.01
           371.76,176.78 383.98,170.69 394.00,168.46
           401.18,167.47 408.02,167.56 413.83,172.53 Z" />
  </symbol>

  <symbol id="26">
   <path id="26"
      d="M 420.00,211.58
         C 435.98,216.47 440.02,237.72 440.00,252.00
           439.99,255.49 440.12,258.66 438.86,262.00
           433.63,275.77 413.25,282.62 400.00,285.33
           394.22,286.52 386.99,285.62 382.00,282.30
           371.02,275.01 361.26,251.97 365.64,239.00
           369.82,226.60 393.87,214.78 406.00,211.58
           409.80,210.91 416.34,210.54 420.00,211.58 Z" />
  </symbol>

  <symbol id="27">
    <path id="27"
      d="M 432.00,275.31
         C 452.01,276.32 448.02,297.96 448.00,312.00
           448.00,315.06 448.15,318.10 446.99,321.00
           442.40,332.48 425.36,342.75 413.00,341.82
           388.37,339.95 372.85,310.63 384.65,294.01
           391.50,284.36 404.54,282.73 415.00,279.56
           415.00,279.56 426.00,275.31 426.00,275.31
           428.28,275.16 429.65,274.95 432.00,275.31 Z" />
  </symbol>

  <symbol id="28">
    <path id="28"
      d="M 445.90,342.42
         C 452.07,347.56 451.08,354.81 451.00,362.00
           450.78,380.51 441.53,396.07 421.00,394.91
           403.54,393.92 376.09,380.38 387.55,359.00
           388.86,356.56 391.35,353.26 393.30,351.29
           395.24,349.32 398.53,346.67 401.00,345.45
           401.00,345.45 424.00,339.44 424.00,339.44
           430.49,338.61 440.63,338.02 445.90,342.42 Z" />
  </symbol>

  <symbol id="31">
   <path id="31"
      d="M 281.54,733.00
         C 284.49,741.12 286.38,741.29 285.98,751.00
           285.87,753.62 285.68,755.62 283.69,757.57
           279.90,761.26 265.39,762.02 260.00,762.00
           256.49,761.98 252.12,762.22 250.05,758.77
           248.07,755.57 249.48,748.59 250.05,745.00
           251.88,734.31 252.92,718.28 265.00,714.57
           276.95,713.60 278.43,724.44 281.54,733.00 Z" />
  </symbol>

  <symbol id="32">
  <path id="32"
      d="M 312.96,720.00
         C 315.06,722.91 319.36,728.80 320.35,732.00
           323.05,740.74 317.81,751.44 309.00,754.20
           303.08,756.05 293.62,755.75 289.28,750.89
           286.46,747.74 286.01,744.02 285.43,740.00
           283.94,729.65 283.89,714.40 295.00,709.65
           303.43,708.12 308.37,713.61 312.96,720.00 Z" />
  </symbol>

  <symbol id="33">
   <path id="33"
      d="M 355.83,701.00
         C 357.75,703.14 360.31,706.29 361.28,709.00
           362.07,711.21 361.99,713.68 362.00,716.00
           362.02,719.39 362.20,723.80 361.20,727.00
           358.26,736.38 347.59,742.55 338.00,741.82
           331.10,741.29 322.59,737.71 319.70,731.00
           317.82,726.64 318.20,720.71 317.58,716.00
           316.19,705.47 315.61,695.44 327.00,690.65
           338.76,688.22 347.92,692.24 355.83,701.00 Z" />
  </symbol>

  <symbol id="34">
    <path id="34"
      d="M 382.91,661.61
         C 394.10,670.50 396.73,692.21 384.98,701.61
           378.81,706.55 372.42,706.12 365.00,706.00
           361.82,705.94 359.82,705.89 357.01,704.11
           346.62,697.51 331.43,663.47 356.00,657.47
           364.03,656.34 376.32,656.38 382.91,661.61 Z" />
  </symbol>

  <symbol id="35">
    <path id="35"
      d="M 405.21,621.00
         C 413.59,632.55 415.08,654.92 398.00,659.48
           385.20,662.90 366.01,657.79 357.94,646.96
           348.64,634.49 356.85,615.07 371.00,610.53
           382.54,608.63 397.96,611.01 405.21,621.00 Z" />
  </symbol>

  <symbol id="36">
    <path id="36"
      d="M 429.18,550.09
         C 441.43,564.57 440.69,591.34 426.71,604.54
           419.54,611.31 412.41,612.56 403.00,613.71
           390.48,615.25 376.02,611.47 369.36,600.00
           362.22,587.70 367.21,575.28 370.51,563.00
           372.53,555.48 372.07,550.25 378.18,544.19
           383.10,539.31 388.53,538.49 395.00,537.43
           407.31,535.91 421.05,540.48 429.18,550.09 Z" />
  </symbol>

  <symbol id="37">
     <path id="37"
      d="M 437.48,482.09
         C 440.25,485.33 442.58,489.82 443.48,494.00
           446.04,505.80 442.02,526.85 431.96,534.36
           425.88,538.91 419.14,538.08 412.00,538.00
           398.51,537.84 377.48,533.89 377.02,517.00
           376.74,507.27 378.85,505.68 381.26,497.00
           383.77,487.93 382.00,479.59 392.00,474.45
           394.20,473.32 396.60,472.90 399.00,472.44
           411.30,470.86 428.88,472.00 437.48,482.09 Z" />
  </symbol>

  <symbol id="38">
     <path id="38"
      d="M 438.36,421.01
         C 447.76,433.86 447.98,456.53 434.00,466.35
           430.63,468.72 426.02,470.14 422.00,470.91
           412.16,472.77 401.33,471.90 394.21,463.96
           388.23,457.28 387.62,447.44 388.72,439.00
           390.64,424.22 394.85,413.09 411.00,409.46
           420.58,408.23 432.62,413.16 438.36,421.01 Z" />
  </symbol>

  <symbol id="41">
     <path id="41"
      d="M 248.00,735.00
         C 248.00,735.00 250.00,745.00 250.00,745.00
           250.55,748.91 252.18,756.37 249.40,759.57
           246.76,762.61 240.71,762.04 237.00,762.00
           231.84,761.94 218.80,760.94 215.60,756.77
           210.41,750.04 217.08,737.56 219.25,731.00
           220.50,727.22 221.07,723.31 223.51,720.02
           225.79,716.94 227.54,715.91 231.00,714.61
           243.66,713.34 246.01,725.38 248.00,735.00 Z" />
  </symbol>

  <symbol id="42">
    <path id="42"
      d="M 214.25,742.00
         C 213.33,747.44 211.67,752.08 206.00,754.26
           203.93,755.06 201.20,755.00 199.00,755.00
           187.19,755.00 178.66,748.59 179.06,736.00
           179.33,727.40 191.27,712.88 199.00,709.65
           216.57,706.41 216.15,730.69 214.25,742.00 Z" />
  </symbol>

  <symbol id="43">
     <path id="43"
      d="M 178.78,694.21
         C 182.46,697.94 182.94,702.04 183.00,707.00
           183.00,707.00 182.17,719.00 182.17,719.00
           181.01,730.98 180.02,738.09 166.00,741.32
           154.42,743.99 142.17,737.69 138.79,726.00
           137.87,722.82 137.96,719.29 138.00,716.00
           138.17,703.23 149.36,693.65 161.00,690.52
           167.31,689.52 173.94,689.30 178.78,694.21 Z" />
  </symbol>

  <symbol id="44">
    <path id="44"
      d="M 152.67,661.53
         C 163.18,671.26 153.36,697.53 142.99,704.11
           139.05,706.61 133.54,706.05 129.00,706.00
           101.61,705.67 103.38,672.50 117.09,661.61
           120.74,658.71 123.59,658.19 128.00,657.43
           135.51,656.50 146.78,656.08 152.67,661.53 Z" />
  </symbol>

  <symbol id="45">
    <path id="45"
      d="M 132.00,611.57
         C 141.94,616.32 149.06,631.36 145.01,642.00
           141.46,651.33 128.56,658.55 119.00,659.82
           112.61,660.67 105.00,661.31 99.00,658.43
           83.58,651.04 87.39,627.09 98.09,617.21
           103.42,612.29 109.21,611.54 116.00,610.43
           120.79,609.84 127.58,609.46 132.00,611.57 Z" />
  </symbol>

  <symbol id="46">
     <path id="46"
      d="M 119.98,543.39
         C 127.37,549.35 127.09,555.72 129.43,564.00
           133.87,579.74 138.73,594.18 124.00,606.79
           121.48,608.94 119.17,610.26 116.00,611.22
           110.60,612.84 104.59,613.06 99.00,613.00
           92.78,612.92 85.43,611.79 80.00,608.64
           61.88,598.13 57.70,571.19 68.56,554.00
           73.83,545.64 82.52,540.58 92.00,538.46
           101.15,537.20 112.48,537.33 119.98,543.39 Z" />
  </symbol>

  <symbol id="47">
    <path id="47"
      d="M 109.98,476.42
         C 117.55,482.33 116.01,488.11 117.90,496.00
           119.61,503.13 123.43,509.45 122.90,517.00
           121.95,530.55 109.28,534.39 98.00,536.39
           98.00,536.39 89.00,537.17 89.00,537.17
           81.20,537.92 74.84,538.72 68.04,533.44
           56.13,524.20 52.33,497.50 60.85,485.00
           65.52,478.15 72.20,475.20 80.00,473.46
           87.55,472.42 103.93,471.69 109.98,476.42 Z" />
  </symbol>

  <symbol id="48">
    <path id="48"
      d="M 92.00,410.51
         C 95.56,411.49 98.35,413.61 100.98,416.09
           111.06,425.59 111.15,435.21 111.00,448.00
           110.86,459.43 104.41,468.04 93.00,470.48
           80.73,473.11 64.69,468.53 58.41,457.00
           55.60,451.82 55.94,446.68 56.00,441.00
           56.19,424.94 64.24,414.21 80.00,410.51
           83.63,409.96 88.44,409.62 92.00,410.51 Z" />
  </symbol>

  <symbol id="51">
    <path id="51"
          d="M 244.27,178.51
           C 247.09,181.72 245.35,187.38 244.27,191.00
             241.78,199.42 236.84,215.00 227.00,216.77
             214.53,219.02 208.06,206.45 201.58,198.00
             199.02,194.67 194.66,189.68 197.19,185.22
             198.71,182.54 202.27,181.59 205.00,180.67
             216.99,176.61 215.91,178.00 227.00,176.42
             231.32,175.90 241.17,175.00 244.27,178.51 Z" />
  </symbol>

  <symbol id="52">
    <path id="52"
          d="M 191.09,214.00
           C 190.79,218.36 191.50,222.82 189.85,227.00
             188.40,230.68 186.04,233.28 182.00,233.85
             173.59,235.04 164.12,225.88 158.04,220.88
             154.45,217.93 150.71,214.21 152.74,209.09
             153.95,206.05 157.30,204.19 160.00,202.62
             166.78,198.66 174.29,195.84 182.00,194.45
             195.12,193.45 191.67,205.43 191.09,214.00 Z" />
  </symbol>

  <symbol id="53">
    <path id="53"
          d="M 160.40,256.00
           C 156.56,267.55 146.47,272.30 135.00,271.98
             117.64,271.50 116.64,254.39 122.99,242.00
             127.52,233.16 134.78,230.34 143.91,228.53
             159.66,227.16 164.60,243.39 160.40,256.00 Z" />
  </symbol>

  <symbol id="54">
    <path id="54"
           d="M 135.47,288.17
           C 135.47,288.17 140.41,303.00 140.41,303.00
             142.54,309.05 145.71,319.60 137.95,322.99
             127.52,327.55 106.43,316.04 102.66,305.99
             100.23,299.50 102.71,292.96 105.28,287.00
             107.41,282.07 107.90,279.55 112.85,276.85
             120.36,275.39 131.73,281.71 135.47,288.17 Z" />
  </symbol>

  <symbol id="55">
    <path id="55"
          d="M 130.63,340.00
           C 132.70,343.62 132.84,346.03 133.42,350.00
             134.65,358.50 134.16,367.61 125.00,371.39
             115.84,375.16 96.74,372.05 90.65,363.91
             83.52,354.39 90.10,330.15 100.01,324.74
             110.22,322.29 125.63,331.21 130.63,340.00 Z" />
  </symbol>

  <symbol id="61">
    <path id="61"
          d="M 293.00,179.67
           C 295.91,180.61 301.37,182.06 303.26,184.42
             306.06,187.90 303.86,191.90 301.70,195.00
             297.60,200.87 287.82,215.04 281.00,216.61
             266.12,220.03 260.90,204.11 257.34,193.00
             255.34,186.75 252.51,179.87 260.04,176.57
             268.30,175.05 284.95,177.07 293.00,179.67 Z" />
  </symbol>

  <symbol id="62">
    <path id="62"
           d="M 340.00,202.62
           C 343.04,204.39 346.64,206.35 347.55,210.04
             348.37,213.36 346.91,216.20 344.66,218.54
             341.09,222.24 327.84,232.52 323.00,233.61
             307.29,237.16 309.65,219.86 308.72,212.00
             307.99,205.85 306.40,197.85 313.05,194.66
             321.26,193.28 332.96,198.51 340.00,202.62 Z" />
  </symbol>

  <symbol id="63">
    <path id="63"
           d="M 377.01,242.00
           C 381.98,251.71 383.39,266.54 371.00,271.03
             368.12,272.08 365.03,272.06 362.00,271.99
             352.90,271.77 345.01,267.26 340.84,259.00
             337.24,251.87 337.24,238.25 343.27,232.39
             345.45,230.28 347.91,229.47 350.72,228.65
             360.70,227.16 372.38,232.98 377.01,242.00 Z" />
  </symbol>

  <symbol id="64">
    <path id="64"
          d="M 390.91,277.76
           C 396.37,281.50 401.37,297.43 399.91,304.00
             397.69,313.96 382.43,322.36 373.00,323.70
             358.51,325.77 357.25,316.27 360.89,305.00
             365.72,290.01 366.67,280.60 384.72,276.59
             387.22,276.38 388.67,276.23 390.91,277.76 Z" />
  </symbol>

  <symbol id="65">
    <path id="65"
           d="M 401.91,325.74
           C 409.72,331.00 414.71,352.19 411.00,361.00
             408.13,367.79 401.55,369.99 395.00,371.63
             387.92,373.39 378.46,374.23 372.10,369.86
             364.12,364.36 365.01,348.66 368.84,341.00
             372.97,332.75 383.42,327.06 392.00,324.53
             395.54,323.96 398.73,323.60 401.91,325.74 Z" />
  </symbol>

  <symbol id="71">
    <path id="71"
           d="M 288.82,599.21
           C 297.89,607.96 299.38,619.21 285.00,622.54
             279.32,623.86 262.94,625.48 258.37,621.28
             255.58,618.47 257.07,614.26 258.37,611.00
             261.36,602.05 263.33,597.41 273.00,594.53
             279.00,593.60 284.33,594.89 288.82,599.21 Z" />
  </symbol>

  <symbol id="72">
    <path id="72"
          d="M 338.37,596.00
           C 336.94,606.28 322.07,612.95 313.00,614.53
             302.93,616.28 302.92,609.55 303.00,602.00
             303.10,593.63 304.26,584.92 313.00,581.61
             320.67,580.77 339.82,585.56 338.37,596.00 Z" />
  </symbol>

  <symbol id="73">
    <path id="73"
          d="M 369.96,557.00
           C 370.95,560.36 371.28,563.56 370.47,567.00
             368.96,573.38 360.44,585.48 354.00,587.34
             345.68,589.73 339.66,580.97 337.90,574.00
             334.85,561.88 338.96,547.23 351.00,541.70
             360.72,539.76 367.46,548.58 369.96,557.00 Z" />
  </symbol>

  <symbol id="74">
    <path id="74"
         d="M 393.20,495.10
           C 403.28,508.10 396.75,539.14 378.00,539.95
             365.99,540.48 359.87,528.46 358.92,518.00
             358.92,518.00 358.92,509.00 358.92,509.00
             359.17,503.33 359.97,496.42 364.22,492.23
             366.96,489.52 369.39,489.10 373.00,488.61
             380.11,488.62 388.47,489.00 393.20,495.10 Z" />
  </symbol>

  <symbol id="75">
    <path id="75"
           d="M 403.35,435.34
           C 407.81,440.49 407.01,448.64 407.00,455.00
             406.98,467.99 402.89,477.53 389.00,480.48
             372.57,483.97 366.39,469.51 365.32,456.00
             364.35,443.65 372.43,433.70 384.00,430.52
             389.73,429.66 399.35,430.71 403.35,435.34 Z" />
  </symbol>

  <symbol id="81">
    <path id="81"
          d="M 242.41,610.00
           C 243.55,613.14 245.38,617.52 243.11,620.57
             240.53,624.03 232.94,624.07 229.00,623.99
             223.40,623.86 211.40,622.65 207.43,618.57
             202.01,613.02 208.39,602.36 213.09,598.39
             215.68,596.20 217.85,595.47 221.00,594.53
             233.26,592.64 238.59,599.49 242.41,610.00 Z" />
  </symbol>

  <symbol id="82">
    <path id="82"
          d="M 197.00,604.00
           C 196.93,608.63 196.59,612.95 190.98,613.74
             184.11,614.70 168.80,607.41 164.80,601.96
             162.26,598.51 160.39,594.18 162.47,590.04
             165.50,584.00 176.79,581.54 183.00,580.48
             196.21,579.89 197.13,594.08 197.00,604.00 Z" />
  </symbol>

  <symbol id="83">
    <path id="83"
           d="M 156.24,550.00
           C 158.19,552.93 160.32,557.54 160.99,561.00
             162.64,569.52 158.94,583.80 150.00,587.11
             141.86,590.12 135.94,581.76 132.03,576.00
             130.10,573.16 128.33,570.39 127.53,567.00
             125.12,556.82 131.86,545.81 141.00,541.70
             148.41,540.22 152.33,544.12 156.24,550.00 Z" />
  </symbol>

  <symbol id="84">
    <path id="84"
          d="M 132.89,492.43
           C 141.30,499.31 140.38,520.98 136.09,530.00
             133.34,535.79 128.71,540.63 122.00,540.95
             101.45,541.94 94.53,509.35 104.80,496.10
             109.49,490.04 116.11,490.16 123.00,489.59
             126.71,489.66 129.88,489.97 132.89,492.43 Z" />
  </symbol>

  <symbol id="85">
    <path id="85"
          d="M 131.68,456.00
           C 130.78,467.31 127.10,479.34 114.00,480.81
             111.17,481.13 108.71,480.76 106.00,479.96
             89.49,475.03 89.83,462.17 90.00,448.00
             90.06,443.56 90.61,438.85 93.65,435.34
             96.91,431.57 101.42,431.18 106.00,430.43
             120.65,428.75 132.83,441.37 131.68,456.00 Z" />
  </symbol>
</svg>