<?xml version="1.0" encoding="utf-8"?>
<!-- Generator: Adobe Illustrator 16.0.0, SVG Export Plug-In . SVG Version: 6.00 Build 0)  -->
<!DOCTYPE svg PUBLIC "-//W3C//DTD SVG 1.1//EN" "http://www.w3.org/Graphics/SVG/1.1/DTD/svg11.dtd">
<svg version="1.1" id="Layer_1" xmlns="http://www.w3.org/2000/svg" xmlns:xlink="http://www.w3.org/1999/xlink" x="0px" y="0px"
	 width="183.777px" height="240.16px" viewBox="0 0 183.777 240.16" enable-background="new 0 0 183.777 240.16"
	 xml:space="preserve">
<g>
	<g>
		<g>
			<path fill="#FFFFFF" d="M145.878,4.839c-1.556-1.556-4.628-2.829-6.828-2.829H6.373c-2.2,0-4,1.8-4,4v228c0,2.2,1.8,4,4,4h172
				c2.2,0,4-1.8,4-4V45.334c0-2.2-1.272-5.273-2.828-6.829L145.878,4.839z"/>
			<path fill="none" stroke="#E5E5E5" stroke-miterlimit="10" d="M145.878,5.089c-1.556-1.556-4.628-2.579-6.828-2.579H6.373
				c-2.2,0-4.5,1.3-4.5,3.5v228c0,2.2,2.3,4.5,4.5,4.5h172c2.2,0,3.5-2.3,3.5-4.5V45.334c0-2.2-1.022-5.148-2.578-6.704
				L145.878,5.089z"/>
		</g>
		<polygon fill="#E5E5E5" points="144.373,4.333 144.373,40.011 180.049,40.011 		"/>
	</g>
	<g>
		<rect x="13.373" y="33.011" fill="#9C9C9C" width="119" height="6"/>
		<rect x="31.373" y="125.011" fill="#E5E5E5" width="120" height="9"/>
		<rect x="31.373" y="207.011" fill="#E5E5E5" width="120" height="9"/>
		<g>
			<g>
				<path fill="#9C9C9C" d="M53.039,14.198c0-0.55,0.451-1,1-1h46.843c0.55,0,1,0.45,1,1l0,0c0,0.55-0.45,1-1,1H54.039
					C53.49,15.198,53.039,14.748,53.039,14.198L53.039,14.198z"/>
			</g>
			<g>
				<path fill="#9C9C9C" d="M53.039,18.698c0-0.55,0.451-1,1-1h63.76c0.551,0,1,0.45,1,1l0,0c0,0.55-0.449,1-1,1h-63.76
					C53.49,19.698,53.039,19.248,53.039,18.698L53.039,18.698z"/>
			</g>
			<g>
				<path fill="#9C9C9C" d="M53.039,23.198c0-0.55,0.451-1,1-1h63.76c0.551,0,1,0.45,1,1l0,0c0,0.55-0.449,1-1,1h-63.76
					C53.49,24.198,53.039,23.748,53.039,23.198L53.039,23.198z"/>
			</g>
			<path fill="#585858" d="M33.937,14.117c-0.199-0.966-0.684-1.592-1.453-1.866c-0.533-0.197-1.214-0.168-2.043,0.088
				c-0.83,0.26-1.438,0.387-1.82,0.387c-0.386,0-0.994-0.127-1.824-0.387c-0.829-0.256-1.508-0.285-2.043-0.088
				c-0.77,0.274-1.262,0.9-1.479,1.866c-0.118,0.593-0.099,1.185,0.058,1.776c0.16,0.593,0.377,1.195,0.652,1.809
				c0.277,0.611,0.445,1.103,0.504,1.48c0.041,0.217,0.049,0.699,0.029,1.45c-0.021,0.749,0.012,1.49,0.089,2.224
				c0.335,2.407,0.869,3.611,1.6,3.611c0.157,0,0.295-0.043,0.415-0.132c0.117-0.091,0.206-0.233,0.266-0.433
				c0.06-0.196,0.104-0.388,0.135-0.575c0.029-0.189,0.038-0.441,0.029-0.758c-0.013-0.313-0.021-0.571-0.029-0.766
				c-0.012-0.201-0.025-0.466-0.046-0.802c-0.04-0.572-0.05-0.957-0.029-1.156c0.12-1.321,0.677-1.984,1.675-1.984
				c0.996,0,1.553,0.663,1.67,1.984c0.021,0.219,0.012,0.603-0.029,1.156c-0.018,0.336-0.037,0.601-0.058,0.802
				c-0.021,0.194-0.03,0.453-0.03,0.766c0,0.316,0.016,0.568,0.046,0.758c0.03,0.188,0.071,0.379,0.133,0.575
				c0.06,0.199,0.149,0.342,0.267,0.433c0.118,0.089,0.256,0.132,0.414,0.132c0.73,0,1.264-1.204,1.599-3.611
				c0.081-0.713,0.11-1.458,0.089-2.238c-0.019-0.78-0.008-1.259,0.029-1.436c0.063-0.378,0.229-0.869,0.504-1.48
				c0.277-0.613,0.494-1.216,0.654-1.809C34.064,15.302,34.075,14.71,33.937,14.117L33.937,14.117z M33.937,14.117"/>
		</g>
		<g>
			<g>
				<path fill="#666666" d="M34.163,65.345c0.065-1.107,0.47-2.061,1.058-2.705c-0.337-0.83-1.016-1.129-1.809-1.129
					c-1.123,0-2.035,0.578-2.035,2.467c0,1.36,0.912,2.465,2.035,2.465c0.277,0,0.541-0.068,0.781-0.189
					C34.16,65.957,34.144,65.655,34.163,65.345z"/>
				<path fill="#666666" d="M42.492,61.511c-0.815,0-1.512,0.312-1.838,1.197c0.743,0.762,1.197,2.006,1.116,3.365
					c-0.004,0.067-0.02,0.127-0.026,0.191c0.232,0.111,0.482,0.178,0.748,0.178c1.124,0,2.035-1.104,2.035-2.465
					C44.527,62.089,43.616,61.511,42.492,61.511z"/>
				<path fill="#666666" d="M37.952,69.647c1.687,0,3.054-1.574,3.054-3.516c0-2.693-1.367-3.516-3.054-3.516
					s-3.054,0.822-3.054,3.516C34.898,68.073,36.265,69.647,37.952,69.647z"/>
				<path fill="#666666" d="M44.695,74.821l-1.541-3.414c-0.07-0.155-0.194-0.285-0.349-0.365l-1.071-1.054
					c-0.052-0.026-1.465-0.036-1.513,0c-0.343,0.256-0.854,1.474-1.513,1.474c-0.324,0-1.105,0-1.514,0
					c-0.828,0-0.837-0.971-1.513-1.474c-0.048-0.036-1.46-0.026-1.514,0l-1.071,1.054c-0.153,0.08-0.277,0.209-0.348,0.365
					l-1.54,3.414c-0.106,0.234-0.085,0.504,0.058,0.721c0.143,0.215,0.385,0.344,0.646,0.344H43.99c0.262,0,0.504-0.129,0.646-0.344
					C44.779,75.325,44.8,75.056,44.695,74.821z"/>
				<path fill="#666666" d="M46.986,70.071l-1.026-2.395c-0.048-0.109-0.13-0.199-0.232-0.256l-0.714-0.739
					c-0.035-0.019-0.977,0.124-1.009,0.147c-0.229,0.18-0.569,1.182-1.009,1.182c-0.217,0-0.737,0-1.01,0
					c-0.238,0-0.373-0.277-0.488-0.451c-0.114,0.324-0.262,0.598-0.434,0.857c1.32,0.249,2.721,1.099,3.822,2.431
					c0.04,0.049,0.076,0.163,0.115,0.163h1.516c0.174,0,0.336-0.187,0.43-0.338C47.042,70.521,47.057,70.236,46.986,70.071z"/>
				<path fill="#666666" d="M32.503,69.734c0.775-0.598,1.623-1.02,2.465-1.276c-0.211-0.286-0.392-0.587-0.525-0.966
					c-0.155,0.203-0.33,0.519-0.526,0.519c-0.216,0-0.737,0-1.009,0c-0.552,0-0.559-0.828-1.009-1.182
					c-0.032-0.023-0.974-0.092-1.009-0.072l-0.714,0.702c-0.103,0.055-0.185,0.128-0.232,0.237l-1.026,2.384
					c-0.071,0.166-0.057,0.446,0.039,0.598c0.095,0.15,0.256,0.333,0.43,0.333h1.835C31.578,71.011,32.003,70.119,32.503,69.734z"/>
			</g>
			<g>
				<path fill="#585858" d="M69.665,107.409c1.636,0,2.959-1.548,2.959-3.461c0-2.65-1.323-3.461-2.959-3.461
					c-1.632,0-2.956,0.811-2.956,3.461C66.708,105.861,68.033,107.409,69.665,107.409z"/>
				<path fill="#585858" d="M74.705,109.146c-0.067-0.155-0.187-0.282-0.338-0.36l-2.315-1.205
					c-0.053-0.028-0.113-0.021-0.158,0.013c-0.655,0.495-1.425,0.759-2.229,0.759c-0.801,0-1.569-0.264-2.226-0.759
					c-0.047-0.033-0.109-0.041-0.16-0.013l-2.313,1.205c-0.15,0.078-0.269,0.205-0.339,0.36l-1.491,3.359v1.049h6.529h6.532v-1.049
					L74.705,109.146z"/>
			</g>
			<g>
				<path fill="#585858" d="M69.665,87.909c1.636,0,2.959-1.548,2.959-3.461c0-2.65-1.323-3.461-2.959-3.461
					c-1.632,0-2.956,0.811-2.956,3.461C66.708,86.361,68.033,87.909,69.665,87.909z"/>
				<path fill="#585858" d="M74.705,89.646c-0.067-0.155-0.187-0.282-0.338-0.36l-2.315-1.205c-0.053-0.028-0.113-0.021-0.158,0.013
					c-0.655,0.495-1.425,0.759-2.229,0.759c-0.801,0-1.569-0.264-2.226-0.759c-0.047-0.033-0.109-0.041-0.16-0.013l-2.313,1.205
					c-0.15,0.078-0.269,0.205-0.339,0.36l-1.491,3.359v1.049h6.529h6.532v-1.049L74.705,89.646z"/>
			</g>
			<g>
				<path fill="#9C9C9C" d="M83.373,87.698c0-0.55,0.451-1,1-1h46.843c0.55,0,1,0.45,1,1l0,0c0,0.55-0.45,1-1,1H84.373
					C83.824,88.698,83.373,88.248,83.373,87.698L83.373,87.698z"/>
			</g>
			<g>
				<rect x="55.498" y="65.323" fill="#E5E5E5" width="76.625" height="5.854"/>
			</g>
			<g>
				<path fill="#9C9C9C" d="M83.373,92.198c0-0.55,0.45-1,1-1h46.927c0.55,0,1,0.45,1,1l0,0c0,0.55-0.45,1-1,1H84.373
					C83.823,93.198,83.373,92.748,83.373,92.198L83.373,92.198z"/>
			</g>
			<g>
				<path fill="#9C9C9C" d="M83.373,106.864c0-0.55,0.451-1,1-1h46.843c0.55,0,1,0.45,1,1l0,0c0,0.55-0.45,1-1,1H84.373
					C83.824,107.864,83.373,107.414,83.373,106.864L83.373,106.864z"/>
			</g>
			<g>
				<path fill="#9C9C9C" d="M83.373,111.364c0-0.55,0.45-1,1-1h46.927c0.55,0,1,0.45,1,1l0,0c0,0.55-0.45,1-1,1H84.373
					C83.823,112.364,83.373,111.914,83.373,111.364L83.373,111.364z"/>
			</g>
		</g>
		<g>
			<g>
				<path fill="#666666" d="M34.163,147.345c0.065-1.107,0.47-2.061,1.058-2.705c-0.337-0.83-1.016-1.129-1.809-1.129
					c-1.123,0-2.035,0.578-2.035,2.467c0,1.36,0.912,2.465,2.035,2.465c0.277,0,0.541-0.068,0.781-0.189
					C34.16,147.957,34.144,147.655,34.163,147.345z"/>
				<path fill="#666666" d="M42.492,143.511c-0.815,0-1.512,0.312-1.838,1.197c0.743,0.762,1.197,2.006,1.116,3.365
					c-0.004,0.067-0.02,0.127-0.026,0.191c0.232,0.111,0.482,0.178,0.748,0.178c1.124,0,2.035-1.104,2.035-2.465
					C44.527,144.089,43.616,143.511,42.492,143.511z"/>
				<path fill="#666666" d="M37.952,151.647c1.687,0,3.054-1.574,3.054-3.516c0-2.693-1.367-3.516-3.054-3.516
					s-3.054,0.822-3.054,3.516C34.898,150.073,36.265,151.647,37.952,151.647z"/>
				<path fill="#666666" d="M44.695,156.821l-1.541-3.414c-0.07-0.155-0.194-0.285-0.349-0.365l-1.071-1.054
					c-0.052-0.026-1.465-0.036-1.513,0c-0.343,0.256-0.854,1.474-1.513,1.474c-0.324,0-1.105,0-1.514,0
					c-0.828,0-0.837-0.971-1.513-1.474c-0.048-0.036-1.46-0.026-1.514,0l-1.071,1.054c-0.153,0.08-0.277,0.209-0.348,0.365
					l-1.54,3.414c-0.106,0.234-0.085,0.504,0.058,0.721c0.143,0.215,0.385,0.344,0.646,0.344H43.99c0.262,0,0.504-0.129,0.646-0.344
					C44.779,157.325,44.8,157.056,44.695,156.821z"/>
				<path fill="#666666" d="M46.986,152.071l-1.026-2.395c-0.048-0.109-0.13-0.199-0.232-0.256l-0.714-0.739
					c-0.035-0.019-0.977,0.124-1.009,0.147c-0.229,0.18-0.569,1.182-1.009,1.182c-0.217,0-0.737,0-1.01,0
					c-0.238,0-0.373-0.277-0.488-0.451c-0.114,0.324-0.262,0.598-0.434,0.857c1.32,0.249,2.721,1.099,3.822,2.431
					c0.04,0.049,0.076,0.163,0.115,0.163h1.516c0.174,0,0.336-0.187,0.43-0.338C47.042,152.521,47.057,152.236,46.986,152.071z"/>
				<path fill="#666666" d="M32.503,151.734c0.775-0.598,1.623-1.02,2.465-1.276c-0.211-0.286-0.392-0.587-0.525-0.966
					c-0.155,0.203-0.33,0.519-0.526,0.519c-0.216,0-0.737,0-1.009,0c-0.552,0-0.559-0.828-1.009-1.182
					c-0.032-0.023-0.974-0.092-1.009-0.072l-0.714,0.702c-0.103,0.055-0.185,0.128-0.232,0.237l-1.026,2.384
					c-0.071,0.166-0.057,0.446,0.039,0.598c0.095,0.15,0.256,0.333,0.43,0.333h1.835C31.578,153.011,32.003,152.119,32.503,151.734z
					"/>
			</g>
			<g>
				<path fill="#585858" d="M69.665,189.409c1.636,0,2.959-1.548,2.959-3.461c0-2.65-1.323-3.461-2.959-3.461
					c-1.632,0-2.956,0.811-2.956,3.461C66.708,187.861,68.033,189.409,69.665,189.409z"/>
				<path fill="#585858" d="M74.705,191.146c-0.067-0.155-0.187-0.282-0.338-0.36l-2.315-1.205
					c-0.053-0.028-0.113-0.021-0.158,0.013c-0.655,0.495-1.425,0.759-2.229,0.759c-0.801,0-1.569-0.264-2.226-0.759
					c-0.047-0.033-0.109-0.041-0.16-0.013l-2.313,1.205c-0.15,0.078-0.269,0.205-0.339,0.36l-1.491,3.359v1.049h6.529h6.532v-1.049
					L74.705,191.146z"/>
			</g>
			<g>
				<path fill="#585858" d="M69.665,169.909c1.636,0,2.959-1.548,2.959-3.461c0-2.65-1.323-3.461-2.959-3.461
					c-1.632,0-2.956,0.811-2.956,3.461C66.708,168.361,68.033,169.909,69.665,169.909z"/>
				<path fill="#585858" d="M74.705,171.646c-0.067-0.155-0.187-0.282-0.338-0.36l-2.315-1.205
					c-0.053-0.028-0.113-0.021-0.158,0.013c-0.655,0.495-1.425,0.759-2.229,0.759c-0.801,0-1.569-0.264-2.226-0.759
					c-0.047-0.033-0.109-0.041-0.16-0.013l-2.313,1.205c-0.15,0.078-0.269,0.205-0.339,0.36l-1.491,3.359v1.049h6.529h6.532v-1.049
					L74.705,171.646z"/>
			</g>
			<g>
				<path fill="#9C9C9C" d="M83.373,169.698c0-0.55,0.451-1,1-1h46.843c0.55,0,1,0.45,1,1l0,0c0,0.55-0.45,1-1,1H84.373
					C83.824,170.698,83.373,170.248,83.373,169.698L83.373,169.698z"/>
			</g>
			<g>
				<rect x="55.498" y="147.323" fill="#E5E5E5" width="76.625" height="5.854"/>
			</g>
			<g>
				<path fill="#9C9C9C" d="M83.373,174.198c0-0.55,0.45-1,1-1h46.927c0.55,0,1,0.45,1,1l0,0c0,0.55-0.45,1-1,1H84.373
					C83.823,175.198,83.373,174.748,83.373,174.198L83.373,174.198z"/>
			</g>
			<g>
				<path fill="#9C9C9C" d="M83.373,188.864c0-0.55,0.451-1,1-1h46.843c0.55,0,1,0.45,1,1l0,0c0,0.55-0.45,1-1,1H84.373
					C83.824,189.864,83.373,189.414,83.373,188.864L83.373,188.864z"/>
			</g>
			<g>
				<path fill="#9C9C9C" d="M83.373,193.364c0-0.55,0.45-1,1-1h46.927c0.55,0,1,0.45,1,1l0,0c0,0.55-0.45,1-1,1H84.373
					C83.823,194.364,83.373,193.914,83.373,193.364L83.373,193.364z"/>
			</g>
		</g>
	</g>
</g>
</svg>
