<?xml version="1.0" encoding="utf-8"?>
<!-- Generator: Adobe Illustrator 16.0.0, SVG Export Plug-In . SVG Version: 6.00 Build 0)  -->
<!DOCTYPE svg PUBLIC "-//W3C//DTD SVG 1.1//EN" "http://www.w3.org/Graphics/SVG/1.1/DTD/svg11.dtd">
<svg version="1.1" id="Capa_1" xmlns="http://www.w3.org/2000/svg" xmlns:xlink="http://www.w3.org/1999/xlink" x="0px" y="0px"
	 width="612px" height="612px" viewBox="0 0 612 612" enable-background="new 0 0 612 612" xml:space="preserve">
<g>
	<path fill="#585858" d="M83.455,464.734l78.364,91.104c10.015,11.656,26.539,11.545,36.637,0l79.727-91.104H584.1
		c15.411,0,27.901-12.49,27.901-28.014V75.502c0-15.495-12.212-28.041-27.874-28.041H27.874C12.49,47.461,0,59.952,0,75.502v361.219
		c0,15.468,12.323,28.014,27.791,28.014H83.455z M111.273,164.91c0-3.394,2.754-6.176,6.12-6.176h349.396
		c3.422,0,6.12,2.754,6.12,6.176v15.467c0,3.394-2.754,6.176-6.12,6.176H117.393c-3.421,0-6.12-2.754-6.12-6.176V164.91
		L111.273,164.91z M111.273,248.364c0-3.394,2.754-6.176,6.12-6.176h349.396c3.422,0,6.12,2.754,6.12,6.176v15.467
		c0,3.394-2.754,6.176-6.12,6.176H117.393c-3.421,0-6.12-2.754-6.12-6.176V248.364L111.273,248.364z M111.273,331.818
		c0-3.394,2.615-6.176,5.814-6.176h238.735c3.171,0,5.813,2.754,5.813,6.176v15.468c0,3.394-2.614,6.176-5.813,6.176H117.087
		c-3.171,0-5.814-2.754-5.814-6.176V331.818L111.273,331.818z"/>
</g>
</svg>
